<svg id="SvgjsSvg1000" xmlns="http://www.w3.org/2000/svg" version="1.1" xmlns:xlink="http://www.w3.org/1999/xlink" xmlns:svgjs="http://svgjs.com/svgjs" width="67" height="67" viewBox="0 0 67 67"><title>Ellipse 1</title><desc>Created with Avocode.</desc><defs id="SvgjsDefs1001"><clipPath id="SvgjsClipPath1009"><path id="SvgjsPath1008" d="M961.5 285C980.002 285 995 299.87 995 318.214C995 336.558 980.002 351.429 961.5 351.429C942.998 351.429 928 336.558 928 318.21399999999994C928 299.86999999999995 942.998 284.99999999999994 961.5 284.99999999999994Z " fill="#ffffff"></path></clipPath></defs><path id="SvgjsPath1007" d="M961.5 285C980.002 285 995 299.87 995 318.214C995 336.558 980.002 351.429 961.5 351.429C942.998 351.429 928 336.558 928 318.21399999999994C928 299.86999999999995 942.998 284.99999999999994 961.5 284.99999999999994Z " fill-opacity="0" fill="#ffffff" stroke-dashoffset="0" stroke-linejoin="miter" stroke-linecap="butt" stroke-opacity="1" stroke="#f6f7fc" stroke-miterlimit="50" stroke-width="4" clip-path="url(&quot;#SvgjsClipPath1009&quot;)" transform="matrix(1,0,0,1,-928,-285)"></path></svg>